# xmcd
#
# Track frame offsets:
#	182
#	13252
#	24615
#	38175
#	51857
#	64877
#	75507
#	87375
#	100907
#	113847
#	127317
#	138770
#	150745
#	162095
#	174107
#
# Disc length: 2494 seconds
#
# Revision: 6
# Processed by: cddbd v1.5.2PL0 Copyright (c) Steve Scherf et al.
# Submitted via: audiograbber 1.83.01
#
DISCID=bf09bc0f
DTITLE=Robert Johnson - The very best of Robert Johnson
DYEAR=1995
DGENRE=Blues
TTITLE0=Kindhearted Woman Blues #1
TTITLE1=Kindhearted Woman Blues #2
TTITLE2=I believe I dust my broom
TTITLE3=Sweet Home Chicago
TTITLE4=Rambling on my mind #1
TTITLE5=Rambling on my mind #2
TTITLE6=Come on in my kitchen
TTITLE7=Terraplane Blues
TTITLE8=32-20 Blues
TTITLE9=They're red hot
TTITLE10=Dead shrimp Blues
TTITLE11=Cross road Blues
TTITLE12=Walking Blues
TTITLE13=Last fair deal gone down
TTITLE14=Preaching Blues
EXTD=
EXTT0=
EXTT1=
EXTT2=
EXTT3=
EXTT4=
EXTT5=
EXTT6=
EXTT7=
EXTT8=
EXTT9=
EXTT10=
EXTT11=
EXTT12=
EXTT13=
EXTT14=
PLAYORDER=
